<svg version="1.1" id="Layer_1" xmlns="http://www.w3.org/2000/svg" xmlns:xlink="http://www.w3.org/1999/xlink" x="0px" y="0px"
	 width="100%" viewBox="0 0 1024 1024" enable-background="new 0 0 1024 1024" xml:space="preserve">
<!-- <path fill="#FFFFFF" opacity="1.000000" stroke="none" 
	d="
M454.000000,1025.000000 
	C304.166656,1025.000000 154.833313,1024.983643 5.500070,1025.094116 
	C1.750615,1025.096802 0.905801,1024.249146 0.906913,1020.500000 
	C1.007246,682.166687 1.007246,343.833344 0.906913,5.500028 
	C0.905801,1.750903 1.750902,0.905800 5.500028,0.906912 
	C343.833344,1.007255 682.166687,1.007255 1020.500000,0.906912 
	C1024.249146,0.905800 1025.094360,1.750902 1025.093262,5.500027 
	C1024.992920,343.833344 1024.992798,682.166687 1025.093140,1020.500000 
	C1025.094238,1024.249146 1024.249268,1025.095825 1020.499939,1025.093750 
	C831.833313,1024.987061 643.166687,1025.000000 454.000000,1025.000000 
z"/> -->
<path fill="#CDE6AC" opacity="1.000000" stroke="none" 
	d="
M827.109009,575.219910 
	C822.658813,583.621216 816.787903,590.626465 811.287231,597.821472 
	C797.105042,616.372009 780.528870,632.807922 763.394653,648.534668 
	C751.861389,659.120605 739.022949,668.184448 724.841064,675.424072 
	C717.513245,679.164795 710.410889,683.791992 703.468262,688.502197 
	C693.846741,695.030029 684.037476,701.123962 672.932129,705.562256 
	C659.374573,710.980591 645.549927,715.354736 631.614319,719.209900 
	C616.208984,723.471741 600.490845,727.056946 584.278259,727.012268 
	C572.946533,726.981018 561.614563,726.966492 550.282837,726.987549 
	C538.760071,727.008972 527.655884,723.934814 516.343201,722.408447 
	C513.279663,721.995056 510.664215,720.049133 507.423676,719.560852 
	C504.318512,719.093018 504.133240,715.818237 504.625397,713.072510 
	C506.058838,705.075256 510.415649,698.320007 514.309875,691.445862 
	C524.700439,673.104126 537.357239,656.266541 549.362061,638.982422 
	C559.512573,624.368164 570.499451,610.457153 582.040344,596.983521 
	C586.212830,592.112305 591.132446,587.792297 595.738708,583.280212 
	C615.487366,563.935181 632.371765,541.914307 652.618469,523.051025 
	C670.743774,506.164185 688.152039,488.467926 707.245361,472.676056 
	C719.890930,462.217072 733.800110,453.373932 747.747681,444.666962 
	C750.918579,442.687469 755.005920,441.630157 757.837769,436.755524 
	C749.867554,439.003784 743.918884,442.574310 738.044128,445.973114 
	C726.291260,452.772675 714.431030,459.384674 702.961487,466.704681 
	C690.017090,474.965973 678.545044,485.002380 666.703613,494.621552 
	C652.514221,506.148163 638.945801,518.395935 625.689880,530.955811 
	C618.233032,538.021118 611.288696,545.720398 604.805298,553.696411 
	C596.764771,563.588013 586.532593,571.159851 577.946289,580.430481 
	C560.677734,599.075317 543.687805,617.962158 528.587402,638.447449 
	C517.091370,654.042908 505.740051,669.745056 494.226532,685.327454 
	C491.056885,689.617249 486.896301,688.866150 484.905060,683.899902 
	C481.421143,675.210815 478.562775,666.438049 476.762878,657.131958 
	C475.227844,649.195496 471.923309,641.339294 470.604889,633.432739 
	C469.079132,624.282898 466.338867,614.427917 471.668671,605.244751 
	C472.052673,604.583130 472.089752,603.625183 472.039246,602.820679 
	C471.392303,592.516907 473.892578,582.491150 475.295654,572.440247 
	C476.452271,564.154785 478.877991,555.926758 481.573029,547.859863 
	C489.954254,522.773193 504.370209,501.514221 522.274414,482.380280 
	C530.679749,473.397614 538.405762,463.661438 547.557129,455.523346 
	C560.068665,444.397125 573.256958,434.129456 587.961060,425.617462 
	C598.665405,419.420837 609.262939,412.633728 619.086670,404.790283 
	C626.693298,398.717041 635.338379,393.978729 644.033081,389.421234 
	C661.864502,380.074585 679.665466,370.638702 697.979309,362.305145 
	C712.716064,355.599304 728.282837,350.924530 743.684204,345.901978 
	C751.221558,343.443970 758.467896,340.161987 765.951050,337.492462 
	C777.604187,333.335358 789.404419,329.676270 801.181030,325.923065 
	C818.514771,320.398773 836.085815,315.695312 853.704224,311.208984 
	C870.359314,306.967926 887.150208,303.259735 903.882874,299.323517 
	C904.366455,299.209778 904.866455,299.106201 905.359680,299.101624 
	C915.676147,299.005768 917.323730,296.292877 915.109497,309.720428 
	C914.947876,310.700439 914.932190,311.704803 914.853699,312.698242 
	C913.734375,326.864777 912.393616,341.003021 910.023010,355.030304 
	C909.032043,360.893921 909.125854,366.877411 907.192871,372.659332 
	C903.304932,384.288910 901.516968,396.455780 899.729126,408.505432 
	C897.931702,420.619934 894.139648,432.185516 891.501831,444.051788 
	C889.427551,453.383301 885.832153,462.310638 880.238159,470.407715 
	C877.653198,474.149292 876.775452,478.990753 874.603394,483.226044 
	C868.345032,495.429230 863.254700,508.226349 857.163757,520.521790 
	C848.196228,538.624146 838.427795,556.314209 828.332397,573.817078 
	C828.088074,574.240662 827.681274,574.570496 827.109009,575.219910 
z"/>
<path fill="#CFE7B0" opacity="1.000000" stroke="none" 
	d="
M466.528748,633.457153 
	C466.789062,639.825073 467.655487,645.822632 464.175629,651.277710 
	C463.631195,652.131104 463.763489,653.598816 463.963287,654.714294 
	C465.141571,661.293091 461.087219,666.617615 459.836121,672.598816 
	C458.752747,677.778198 456.045929,682.206543 453.946106,686.928955 
	C452.007599,691.288513 449.361908,692.030396 445.588318,688.876221 
	C442.086395,685.949097 439.747253,681.989807 437.382629,678.258606 
	C424.793671,658.393799 408.464752,641.521423 393.976318,623.182800 
	C380.828918,606.541504 365.499298,592.000183 350.690491,576.942871 
	C346.846039,573.033875 343.185944,568.941589 339.490234,564.888733 
	C323.371307,547.212097 304.791718,532.548462 284.681213,519.692078 
	C271.111053,511.016876 258.881653,500.381592 244.941727,492.225830 
	C243.562103,491.418640 242.452301,490.001709 240.612854,490.354156 
	C239.829498,491.343414 240.439804,492.076111 241.085159,492.498260 
	C257.674316,503.350098 271.493866,517.695740 287.533661,529.247253 
	C305.850616,542.438782 321.429688,558.661499 337.012939,574.819946 
	C355.121338,593.596680 372.402344,613.078064 387.883057,634.165283 
	C396.877411,646.417053 405.734680,658.775635 414.837616,670.929688 
	C421.988190,680.476990 427.781830,690.648315 432.378662,701.423889 
	C436.543030,711.185791 434.351440,716.557617 423.420074,718.163452 
	C410.497772,720.061890 397.602295,723.481018 384.603821,722.526733 
	C373.375153,721.702271 362.025757,721.018066 350.852386,718.323608 
	C342.699036,716.357422 334.219360,715.420837 326.171539,712.869873 
	C314.053955,709.028992 301.496948,706.084229 290.331421,699.907654 
	C262.796936,684.676208 237.710342,665.988647 215.514801,643.661377 
	C203.113495,631.186462 192.117630,617.447815 182.053925,602.970276 
	C174.375824,591.924683 166.461227,581.051758 159.930511,569.253784 
	C159.136642,567.819641 159.116714,566.412720 159.107025,564.932861 
	C159.092911,562.779907 159.390579,560.581360 157.110947,559.163452 
	C156.644989,558.873657 156.168900,557.932556 156.297867,557.453186 
	C158.505646,549.248169 151.361023,546.367065 147.310776,541.837524 
	C145.508301,539.821777 144.455688,538.003052 143.815613,535.213318 
	C142.818314,530.866516 139.881790,527.005493 138.418991,522.716248 
	C135.233109,513.374756 131.643738,504.185730 128.878036,494.672302 
	C126.308487,485.833710 124.150284,476.866608 122.383698,467.925720 
	C120.339638,457.580444 117.388649,447.447876 115.897942,436.929443 
	C113.824677,422.300537 111.445862,407.770782 110.976593,392.953369 
	C110.842102,388.706970 110.060921,384.425415 109.888313,380.109924 
	C109.750328,376.660065 111.221428,375.430695 114.302170,376.045227 
	C118.847115,376.951904 123.357391,378.053040 127.849464,379.200348 
	C145.963470,383.826782 164.080551,388.442688 182.165009,393.182678 
	C193.223938,396.081299 203.849731,400.307678 214.484299,404.427582 
	C229.162781,410.114105 243.626602,416.355255 258.310791,422.026337 
	C285.543854,432.543762 313.143616,442.358704 338.588562,456.789062 
	C356.170868,466.760406 372.814209,478.342377 388.248169,491.628235 
	C398.611450,500.549164 408.353271,510.045654 417.985168,519.697998 
	C428.017792,529.751953 436.079163,541.209045 443.335297,553.423035 
	C446.983093,559.563293 451.429321,565.548523 454.430542,571.831909 
	C457.100220,577.421143 459.594116,583.583130 461.560394,589.757935 
	C463.986206,597.375793 462.869415,605.173767 465.450562,612.681946 
	C467.250763,617.918640 465.933105,624.222290 466.046173,630.048523 
	C466.065369,631.037781 466.276703,632.023315 466.528748,633.457153 
z"/>
<path fill="#81BF2E" opacity="1.000000" stroke="none" 
	d="
M913.089355,303.412659 
	C911.274109,322.995361 909.466492,342.148560 906.479004,361.186981 
	C903.903259,377.601624 898.726440,393.457733 896.480896,409.921356 
	C894.337891,425.633362 889.939026,440.824921 884.934265,455.767883 
	C882.255676,463.765533 877.473572,471.042267 873.857422,478.746063 
	C867.935974,491.361267 862.023804,503.985840 856.417053,516.742371 
	C850.312805,530.630798 841.965515,543.289490 835.012573,556.714294 
	C822.992981,579.921997 806.283447,599.723511 788.916626,619.066223 
	C773.063049,636.723450 756.138062,653.118652 736.004272,665.796936 
	C724.212524,673.222290 711.067383,678.603516 699.982239,687.023254 
	C681.524475,701.042786 660.083069,707.538269 638.536743,714.443604 
	C607.705078,724.324829 576.120239,725.772583 544.287659,723.867676 
	C533.312195,723.210815 522.231567,721.328125 511.523926,718.004517 
	C506.846313,716.552612 506.450562,714.365723 508.078278,710.322571 
	C513.697693,696.363953 521.236389,683.509216 529.879761,671.247437 
	C541.357300,654.965027 552.491089,638.430786 564.315735,622.405579 
	C574.304626,608.868347 586.348877,597.084473 598.007996,584.966736 
	C621.306274,560.752136 642.682007,534.707764 667.417236,511.853760 
	C686.833191,493.914429 705.732849,475.331848 727.843445,460.604279 
	C740.831055,451.953430 754.361084,444.121216 767.054016,435.014923 
	C769.610596,433.180756 771.943359,431.036011 774.399231,429.059174 
	C775.053040,428.532867 775.904968,428.061951 775.460632,427.087097 
	C774.908569,425.875793 773.742920,426.217834 772.846497,426.492798 
	C770.462463,427.224213 768.018127,427.880829 765.780701,428.949982 
	C737.700378,442.368042 710.214722,456.925385 685.574524,476.072784 
	C670.369507,487.888214 656.036011,500.836884 641.470520,513.460510 
	C626.109863,526.773254 611.853577,541.170776 598.706970,556.725220 
	C593.260986,563.168640 586.551086,568.544006 580.414062,574.403076 
	C565.697876,588.452515 553.313171,604.551575 540.215210,620.028870 
	C523.239014,640.088989 508.554565,661.845154 493.161652,683.079712 
	C490.274963,687.061951 489.299805,686.889099 487.385803,682.460754 
	C482.815094,671.885620 480.343903,660.704468 477.566864,649.583618 
	C475.203308,640.118530 471.864258,630.791992 472.037994,620.956421 
	C472.230865,610.038269 473.961823,599.250427 475.953308,588.470642 
	C477.452850,580.353760 477.545074,571.955322 479.804657,563.937744 
	C482.541260,554.227478 484.769928,544.430847 489.372070,535.225647 
	C495.636292,522.695984 502.405151,510.569244 510.788422,499.340912 
	C521.391968,485.138885 534.091431,472.861115 546.677979,460.519562 
	C559.510254,447.936981 573.759094,437.224640 589.430237,428.192627 
	C601.185425,421.417542 611.992249,413.029510 622.988281,404.985901 
	C638.521851,393.623108 656.268677,385.944305 673.258179,376.992065 
	C690.320007,368.001740 707.857971,360.494080 726.128235,354.420135 
	C741.041016,349.462372 755.671448,343.662109 770.509338,338.470734 
	C785.193970,333.333008 800.167297,329.081085 815.003113,324.412903 
	C829.102112,319.976501 843.468872,316.622711 857.718140,312.829498 
	C869.700256,309.639801 881.665527,306.198730 894.048035,304.570465 
	C899.273621,303.883301 904.429443,302.414246 909.499451,300.905640 
	C911.898254,300.191833 912.993896,300.380920 913.089355,303.412659 
z"/>
<!-- <path fill="#FFFFFF" opacity="1.000000" stroke="none" 
	d="
M760.574707,435.435364 
	C760.646851,435.533844 760.373352,435.574127 760.373352,435.574127 
	C760.373352,435.574127 760.502502,435.336853 760.574707,435.435364 
z"/> -->
<path fill="#81BF2E" opacity="1.000000" stroke="none" 
	d="
M225.002716,648.985229 
	C210.642075,635.725159 198.128372,621.341553 187.444366,605.383057 
	C181.173416,596.016296 173.978012,587.296204 168.343369,577.474182 
	C163.735657,569.442200 159.349472,561.406311 158.489136,551.953430 
	C158.331024,550.216003 157.428833,548.707642 156.026169,547.745544 
	C147.833160,542.126099 144.931274,533.198547 141.907990,524.553955 
	C138.041763,513.498962 133.297760,502.731049 130.662750,491.252686 
	C128.809631,483.180359 126.678970,475.169983 124.922348,467.077667 
	C122.007492,453.649628 118.929855,440.239990 116.622375,426.702972 
	C115.066254,417.573914 114.660858,408.244141 113.848076,398.994690 
	C113.368462,393.536652 113.106270,388.059692 112.730751,382.592285 
	C112.527893,379.638824 113.320030,378.207367 116.737122,379.138397 
	C125.834251,381.616974 134.928116,384.178772 144.147995,386.113037 
	C151.464752,387.648010 158.560425,389.902435 165.787094,391.708374 
	C178.314590,394.839020 190.865906,397.912842 202.904236,402.676331 
	C223.121658,410.676300 243.294998,418.787537 263.503876,426.809143 
	C286.932739,436.108917 310.699554,444.618103 332.936157,456.688690 
	C362.834656,472.918396 389.548370,493.253662 412.932434,518.024048 
	C421.397156,526.990662 430.572937,535.414246 436.175110,546.542175 
	C442.732269,559.567078 452.530518,570.779114 457.222076,584.822388 
	C459.481628,591.585999 461.035034,598.409119 461.749146,605.557007 
	C462.621979,614.293030 463.918671,622.980042 464.156677,631.780945 
	C464.665100,650.582581 459.655365,668.054260 451.937805,684.995361 
	C450.045074,689.150146 448.795135,688.167297 446.516235,685.676758 
	C439.971375,678.524109 435.383240,669.938232 429.400024,662.406494 
	C419.892548,650.438416 409.671844,639.032593 400.276276,626.980835 
	C384.559937,606.821350 366.286957,589.089417 348.383972,570.985229 
	C343.118134,565.660217 337.989563,560.195312 332.909973,554.691223 
	C317.760315,538.275330 299.034088,526.488159 280.778198,514.052551 
	C267.740784,505.171753 255.382401,495.291656 241.652771,487.430115 
	C236.613770,484.544830 231.509796,481.772186 226.411575,478.991974 
	C225.576706,478.536652 224.493484,477.801880 223.689438,478.763947 
	C222.684113,479.966827 223.675247,480.987091 224.564148,481.710663 
	C229.586395,485.798798 234.504700,490.037109 239.739136,493.837677 
	C253.870728,504.098145 266.452942,516.302429 280.509796,526.594421 
	C302.808563,542.920776 321.907593,562.609131 340.989471,582.348267 
	C355.089813,596.934204 368.175201,612.389282 380.654816,628.415100 
	C393.002808,644.271851 404.802643,660.513794 416.413239,676.892212 
	C422.540710,685.535950 427.491089,694.960449 431.237061,704.936035 
	C433.326080,710.499084 431.880615,713.269897 426.025360,714.704407 
	C404.602997,719.952820 383.008636,720.363159 361.197174,717.410339 
	C338.325165,714.313904 316.326508,708.102356 295.094238,699.286133 
	C283.381226,694.422607 273.570007,686.285645 263.200592,679.083496 
	C249.933807,669.868958 236.845642,660.532410 225.002716,648.985229 
z"/>
<!-- <path fill="#FFFFFF" opacity="1.000000" stroke="none" 
	d="
M237.600464,488.602905 
	C237.492111,488.682587 237.432831,488.392700 237.432831,488.392700 
	C237.432831,488.392700 237.708832,488.523193 237.600464,488.602905 
z"/> -->
</svg>