<svg version="1.1" id="Layer_1" xmlns="http://www.w3.org/2000/svg" xmlns:xlink="http://www.w3.org/1999/xlink" x="0px" y="0px"
	 width="100%" viewBox="0 0 1024 1024" enable-background="new 0 0 1024 1024" xml:space="preserve">
<path fill="#FFFFFF" opacity="1.000000" stroke="none" 
	d="
M570.000000,1025.000000 
	C381.500000,1025.000000 193.500000,1024.987061 5.500053,1025.093750 
	C1.750726,1025.095947 0.905801,1024.249146 0.906913,1020.500000 
	C1.007246,682.166687 1.007246,343.833344 0.906913,5.500028 
	C0.905801,1.750903 1.750902,0.905800 5.500028,0.906912 
	C343.833344,1.007255 682.166687,1.007255 1020.500000,0.906912 
	C1024.249146,0.905800 1025.094360,1.750902 1025.093262,5.500027 
	C1024.992920,343.833344 1024.992798,682.166687 1025.093140,1020.500000 
	C1025.094238,1024.249146 1024.249390,1025.096802 1020.499939,1025.093994 
	C870.500000,1024.983765 720.500000,1025.000000 570.000000,1025.000000 
z"/>
<path fill="#81C12E" opacity="1.000000" stroke="none" 
	d="
M658.247437,310.089172 
	C661.267151,309.497070 663.884949,309.024445 666.479004,308.445007 
	C672.305969,307.143402 672.186218,307.112915 671.748108,312.809875 
	C670.531494,328.630920 667.029663,344.055573 663.613708,359.479858 
	C660.338013,374.270355 652.304260,387.120911 645.888367,400.585876 
	C636.885193,419.480621 624.371399,436.051636 607.691772,448.690857 
	C584.041748,466.612030 558.243530,479.588318 527.213013,477.011444 
	C522.915283,476.654541 518.600830,476.106049 514.388977,475.203552 
	C508.684204,473.981171 508.512878,473.661438 511.178070,468.332733 
	C513.330872,464.028320 515.918213,459.928162 518.487366,455.847290 
	C529.017456,439.120972 542.374756,424.733246 555.785339,410.335114 
	C571.725281,393.221283 588.039062,376.647522 608.403015,364.661224 
	C610.063110,363.684082 611.353333,362.078491 612.927795,360.663971 
	C611.172974,359.148285 609.973450,360.449554 608.819458,361.007751 
	C585.064026,372.498779 565.891663,389.766693 547.525696,408.378754 
	C531.222412,424.900604 516.571411,442.654785 502.809418,462.480103 
	C498.683014,453.663269 495.713196,445.152313 495.736298,436.559265 
	C495.789307,416.833649 500.605621,398.392883 514.157166,383.018341 
	C523.830750,372.043488 535.392517,363.612061 547.216675,355.106232 
	C579.717224,331.726532 617.210999,321.194519 654.955933,310.983643 
	C655.919250,310.723053 656.875305,310.435272 658.247437,310.089172 
z"/>
<path fill="#513525" opacity="1.000000" stroke="none" 
	d="
M774.961792,492.958374 
	C759.965454,500.512054 745.173828,507.734436 731.623596,517.074341 
	C725.209351,521.495483 719.425171,526.729004 711.936279,529.548401 
	C706.549622,531.576355 701.131714,531.049805 695.692322,530.857910 
	C694.359924,530.810852 692.887756,529.789734 691.788879,528.853699 
	C684.014038,522.231201 684.978455,507.973267 693.669434,502.693237 
	C710.025330,492.756622 727.575928,484.870453 743.441223,474.102661 
	C767.266846,457.932129 793.398254,445.692902 817.647644,430.233429 
	C829.475281,422.693085 842.887512,417.759735 854.228149,409.409882 
	C863.204529,402.800781 873.130432,397.992889 883.410522,392.405792 
	C876.301208,386.414154 868.314026,382.450104 860.904053,377.663727 
	C852.294739,372.102661 843.697205,366.467651 834.718750,361.551086 
	C827.240295,357.455963 819.046631,354.621918 812.008118,349.710358 
	C790.684082,334.830322 767.091492,323.912933 744.678284,310.939117 
	C727.683716,301.101868 711.594910,289.782745 694.236328,280.532501 
	C687.827698,277.117432 683.588013,269.150818 688.439636,260.321655 
	C692.655640,252.649231 700.409546,249.625916 708.514282,253.171371 
	C725.158569,260.452393 740.434875,270.277618 755.928711,279.601501 
	C793.484802,302.201996 831.803040,323.475891 869.672119,345.528229 
	C873.799988,347.932007 876.118408,352.139038 880.478394,354.174438 
	C894.740051,360.832184 908.583679,368.265442 921.901367,376.703125 
	C928.155579,380.665588 931.915588,385.275726 931.164612,393.252563 
	C930.555481,399.722534 926.317688,403.422363 922.026611,406.809387 
	C912.145020,414.609192 900.807922,420.166351 889.699219,425.965302 
	C876.853333,432.671112 864.752319,440.647186 852.043213,447.537659 
	C842.282471,452.829681 831.325928,456.380280 822.812317,463.440979 
	C808.265198,475.505615 790.948608,482.748383 774.961792,492.958374 
z"/>
<path fill="#513525" opacity="1.000000" stroke="none" 
	d="
M256.857330,459.760345 
	C261.877625,462.944733 266.490570,466.094635 271.278381,468.951508 
	C288.120728,479.001160 304.729553,489.463959 322.382172,498.097961 
	C324.153564,498.964355 325.822571,500.063354 327.466827,501.162476 
	C336.691742,507.328796 338.685608,513.867737 334.340637,524.768982 
	C333.790131,525.236450 333.543549,525.461731 333.193420,525.919250 
	C333.083099,526.144104 333.070343,526.058594 333.112732,526.067017 
	C332.813599,526.228516 332.523499,526.450317 332.241547,527.006287 
	C332.205383,527.281128 332.151001,527.153931 332.210876,527.188599 
	C324.830933,529.865662 317.254639,529.159668 309.285828,528.186035 
	C301.772339,525.646484 296.312775,520.500305 290.192139,516.312195 
	C279.127594,508.741028 267.222382,502.570557 255.238983,496.505249 
	C236.312561,486.925812 218.333450,475.651154 201.021118,463.400360 
	C191.173050,456.431580 179.468063,453.226105 169.440216,446.530609 
	C150.615265,433.961334 129.893555,424.590302 110.546669,412.923981 
	C104.817192,409.469055 99.892960,404.084076 94.309441,399.929016 
	C93.196404,399.100800 93.164406,397.662445 92.775604,396.393982 
	C90.547729,389.125610 92.374855,382.959015 98.505493,378.731354 
	C108.027504,372.165161 118.117310,366.508789 128.323883,361.113739 
	C143.836075,352.914246 158.226151,342.889343 173.255386,333.906708 
	C190.572800,323.556427 209.069885,315.309540 225.996353,304.370850 
	C249.130630,289.420410 273.064331,275.872345 297.026733,262.354279 
	C302.973053,258.999756 309.092896,255.920685 315.285980,253.044449 
	C322.110901,249.874741 329.499939,252.378632 333.721924,258.898926 
	C337.899292,265.350311 337.095032,272.994507 331.641632,278.106812 
	C326.414917,283.006653 319.608826,285.444244 313.802826,289.409332 
	C282.330109,310.902893 248.201691,327.856720 215.172913,346.640656 
	C191.149612,360.303040 167.906357,375.172668 144.106552,389.151733 
	C142.698044,389.979065 141.444351,391.069946 139.551926,392.452057 
	C143.273941,394.354828 146.524780,396.115234 149.857712,397.703430 
	C163.738663,404.318024 175.220840,414.893250 189.138733,421.444763 
	C191.685410,422.643524 194.165833,423.983093 196.867798,425.545135 
	C197.400497,426.445740 198.031082,426.506531 198.891571,426.792572 
	C199.163971,426.936554 199.642227,426.978363 199.839569,427.115051 
	C200.218903,427.358582 200.400909,427.465454 200.827789,427.772949 
	C201.582321,428.185852 202.091965,428.398071 202.800873,428.812500 
	C212.904968,436.714355 222.933746,444.216431 234.630798,449.096069 
	C238.024536,450.511810 241.152527,452.455902 244.222839,454.426147 
	C248.053268,456.884247 252.021439,458.834534 256.857330,459.760345 
z"/>
<path fill="#81C12F" opacity="1.000000" stroke="none" 
	d="
M398.718750,380.933167 
	C408.518921,389.007080 418.514709,396.507935 427.772095,404.830200 
	C447.302185,422.387573 464.291412,442.182800 477.545715,464.954987 
	C481.518890,471.781281 480.660065,473.016327 472.957153,474.056671 
	C447.567688,477.485718 425.449860,470.060211 405.512939,454.392639 
	C391.908905,443.701721 381.265839,430.613068 372.852356,415.748627 
	C360.091217,393.203125 353.612854,368.734680 352.006409,342.906189 
	C351.786652,339.372986 352.193573,338.405151 356.098450,339.264954 
	C384.858521,345.597565 411.993134,356.585388 438.367676,369.185364 
	C459.819183,379.433411 477.158569,395.064270 487.760223,416.854401 
	C494.583008,430.877625 494.452179,445.449799 488.362122,459.868622 
	C486.477997,464.329437 484.873138,461.101349 483.686401,459.460266 
	C474.992310,447.437714 465.365967,436.195953 455.544617,425.093170 
	C439.613068,407.083008 420.956299,392.524658 399.821381,380.494812 
	C399.205292,380.549011 398.902405,380.666077 398.718750,380.933167 
z"/>
<path fill="#83C629" opacity="1.000000" stroke="none" 
	d="
M425.581238,668.247009 
	C427.616791,655.456665 427.274750,642.939880 427.859802,630.476746 
	C428.156311,624.160767 430.832428,621.167542 436.370483,620.970764 
	C441.955353,620.772339 445.737549,623.484009 445.596741,629.083130 
	C445.140961,647.210266 444.544037,665.387024 437.924896,682.650269 
	C436.666199,685.933105 434.836639,688.922119 432.404053,691.492188 
	C424.086121,700.280273 409.945862,698.707520 403.872681,688.254089 
	C402.483063,685.862183 401.481873,683.244629 400.005646,680.099792 
	C398.952728,682.035706 398.130035,683.538940 397.315948,685.046814 
	C393.096436,692.862732 386.901520,697.527405 377.668945,697.011169 
	C369.160248,696.535400 364.839630,690.844849 361.802826,683.752502 
	C357.345123,673.341736 356.274414,662.221008 355.263947,651.129639 
	C354.675476,644.669739 354.473541,638.163574 354.365631,631.673767 
	C354.242310,624.253113 357.151337,621.079712 363.735809,620.940491 
	C371.081116,620.785095 373.764343,623.457092 374.216980,631.045532 
	C374.969177,643.656616 374.193024,656.373718 376.783691,668.857849 
	C377.052673,670.154053 377.398346,671.442200 377.816772,672.697998 
	C378.713776,675.389893 380.092712,677.550171 383.420013,677.367310 
	C386.532959,677.196167 388.184540,675.344177 389.058685,672.556519 
	C390.470642,668.053833 390.676422,663.372681 390.784790,658.733704 
	C390.998657,649.578857 390.881287,640.416870 390.977051,631.258606 
	C391.051544,624.130798 393.833771,621.096802 400.245697,620.945251 
	C407.457794,620.774780 410.698944,623.684631 410.850922,631.022949 
	C411.099121,643.005798 411.011230,654.998962 412.884430,666.886719 
	C412.962097,667.379822 412.920105,667.906250 413.074463,668.370422 
	C414.234863,671.859314 413.993073,676.868225 418.904694,677.167297 
	C424.355896,677.499268 424.279358,672.305908 425.581238,668.247009 
z"/>
<path fill="#543827" opacity="1.000000" stroke="none" 
	d="
M782.192383,694.411499 
	C779.304871,696.183960 776.460938,696.152893 773.630615,695.987732 
	C768.250793,695.673828 765.188110,692.920532 765.144958,687.512451 
	C764.991211,668.211426 765.009766,648.907959 765.128174,629.606445 
	C765.159546,624.489136 767.838501,621.209595 772.442505,621.120789 
	C783.070984,620.915710 793.749573,620.112732 804.328674,621.767639 
	C816.330261,623.645142 822.477905,628.802917 823.957520,637.818970 
	C825.938538,649.890442 822.222656,657.042114 810.423767,663.116577 
	C819.574402,667.942871 822.209106,676.568970 824.074158,685.522522 
	C825.486145,692.301025 822.626282,695.742798 815.852051,696.022400 
	C806.288574,696.417114 803.774109,694.428223 802.130127,684.964661 
	C801.529602,681.507629 800.716797,678.143250 799.078552,675.017029 
	C797.623352,672.240051 795.467041,670.242126 792.446045,669.340454 
	C786.893921,667.683167 785.418335,668.800476 785.430786,674.569946 
	C785.439026,678.396729 785.562317,682.224243 785.509094,686.049744 
	C785.467041,689.075745 785.178589,692.078186 782.192383,694.411499 
z"/>
<path fill="#83C629" opacity="1.000000" stroke="none" 
	d="
M269.278870,686.424377 
	C269.310699,692.819031 267.484741,695.267212 262.543060,695.944458 
	C254.401978,697.060242 249.711502,695.061035 248.130432,689.540466 
	C246.944427,685.399353 246.686371,681.019836 245.010666,676.988953 
	C242.690140,671.406921 238.936844,668.866394 233.661530,668.931396 
	C231.308929,668.960449 230.408142,669.694214 230.480408,672.084839 
	C230.626114,676.906128 230.727463,681.739990 230.546112,686.557312 
	C230.285980,693.466980 227.195450,696.103516 219.919342,696.024963 
	C213.123276,695.951599 210.115601,693.123230 210.088333,686.319519 
	C210.013626,667.684265 210.017853,649.048401 210.090073,630.413147 
	C210.112610,624.600403 212.632828,621.178955 217.627365,621.113098 
	C228.584518,620.968689 239.587555,620.063904 250.497086,621.924622 
	C261.480957,623.798035 267.646240,629.216797 268.975281,638.000122 
	C270.892609,650.671265 265.835205,659.110168 256.566986,662.380188 
	C256.326263,662.465088 256.200562,662.875977 255.860916,663.366272 
	C264.785309,668.269348 267.249451,677.007141 269.278870,686.424377 
z"/>
<path fill="#553827" opacity="1.000000" stroke="none" 
	d="
M504.025574,652.941528 
	C503.141479,651.145325 502.393219,649.708740 501.515442,648.023560 
	C500.098663,649.228882 500.654694,650.605103 500.697266,651.749634 
	C501.124481,663.238281 501.694916,674.722046 502.061615,686.212463 
	C502.273682,692.857178 499.725861,695.862488 494.218231,696.001831 
	C488.330658,696.150818 485.198456,693.146545 485.159149,686.623352 
	C485.045593,667.792786 485.037964,648.960510 485.171783,630.130188 
	C485.216980,623.768005 488.166168,621.545288 494.460388,620.843689 
	C503.755493,619.807556 509.463409,623.295959 513.018188,632.083313 
	C516.904236,641.689636 521.873535,650.857788 526.370605,660.216919 
	C526.801025,660.128296 527.231445,660.039734 527.661804,659.951111 
	C527.298767,652.124939 526.948975,644.298096 526.564636,636.472961 
	C526.450317,634.144531 526.083252,631.819580 526.103088,629.495300 
	C526.151184,623.843018 528.912170,621.023926 534.236450,620.959778 
	C539.927612,620.891174 542.968567,623.601074 543.006653,629.431213 
	C543.127441,647.929199 543.033569,666.428467 543.102295,684.926941 
	C543.119934,689.683533 542.720154,694.061951 537.176758,695.657410 
	C530.914856,697.459717 524.877014,695.391113 522.025818,690.087646 
	C519.194397,684.821045 516.729492,679.356873 514.123230,673.969971 
	C510.792419,667.085327 507.481110,660.191223 504.025574,652.941528 
z"/>
<path fill="#83C629" opacity="1.000000" stroke="none" 
	d="
M333.302490,690.341431 
	C321.902557,698.749023 309.745697,699.048462 297.513123,694.181030 
	C286.077606,689.630798 282.561584,679.335632 280.993103,668.169800 
	C280.108917,661.875061 280.181976,655.580444 280.916565,649.251648 
	C283.743561,624.895508 299.089844,617.412903 319.987457,620.511841 
	C331.777039,622.260193 338.878143,629.787964 341.899506,641.065613 
	C344.925598,652.361023 344.883057,663.771912 342.075195,675.138367 
	C340.649017,680.911499 338.029968,686.035095 333.302490,690.341431 
z"/>
<path fill="#83C62A" opacity="1.000000" stroke="none" 
	d="
M137.595032,652.559998 
	C137.842865,650.293274 137.914658,648.454102 138.210419,646.651672 
	C141.852707,624.453735 161.839645,613.448792 182.816818,622.067871 
	C188.708435,624.488708 192.713898,628.681458 194.621063,634.784607 
	C196.292297,640.132935 194.859818,644.099365 190.743973,645.743103 
	C184.878433,648.085632 179.866623,646.291321 177.466385,640.989502 
	C174.745972,634.980530 172.325974,633.681030 166.302673,634.920654 
	C162.205185,635.763977 159.951828,638.576294 159.054764,642.327576 
	C156.619537,652.511047 156.344925,662.790283 159.153198,672.932922 
	C160.946594,679.410034 165.602219,682.428101 171.790161,681.856262 
	C178.467880,681.239075 181.107681,677.243774 179.311737,670.815735 
	C178.703903,668.640198 177.122162,669.184814 175.760635,669.033020 
	C171.669876,668.577026 168.627930,666.844238 168.532806,662.327820 
	C168.430161,657.453857 171.816208,655.631592 175.981949,655.310852 
	C180.118988,654.992310 184.311874,654.988098 188.454269,655.252930 
	C193.804016,655.594971 196.603897,658.483765 196.814774,663.944153 
	C197.039398,669.761169 196.874146,675.594421 196.831085,681.420227 
	C196.797302,685.990784 194.412827,689.159790 190.816116,691.744629 
	C170.377884,706.433044 141.353821,694.193909 138.114563,669.433594 
	C137.402588,663.991394 136.900040,658.509949 137.595032,652.559998 
z"/>
<path fill="#553827" opacity="1.000000" stroke="none" 
	d="
M747.599121,683.425049 
	C744.469299,690.595642 739.000000,694.304993 732.004517,695.961487 
	C724.760437,697.676880 717.455566,697.575745 710.243835,695.822266 
	C700.363403,693.419922 693.796448,686.300049 693.062683,676.236328 
	C691.899963,660.289368 692.661743,644.295349 692.949463,628.326965 
	C693.043701,623.100891 696.417297,620.928406 702.779053,620.924805 
	C709.251404,620.921143 712.456726,623.230408 712.807861,628.785095 
	C713.132751,633.925598 712.915039,639.100281 712.938904,644.259949 
	C712.982117,653.580933 712.861938,662.906616 713.125488,672.221375 
	C713.324463,679.253235 715.712097,682.003174 720.973389,682.264954 
	C727.640015,682.596619 730.809448,679.868286 730.975281,672.846619 
	C731.266052,660.535583 731.214600,648.216553 731.312744,635.900879 
	C731.332642,633.407166 731.139954,630.881897 731.464966,628.426697 
	C732.154480,623.217834 735.240967,620.883301 740.861450,620.955017 
	C746.342407,621.024902 749.670959,623.587769 749.752014,628.928894 
	C749.981873,644.070679 749.926147,659.219849 749.722229,674.362610 
	C749.682922,677.278748 748.458801,680.178955 747.599121,683.425049 
z"/>
<path fill="#553827" opacity="1.000000" stroke="none" 
	d="
M613.343201,693.323853 
	C609.377747,696.888794 605.039490,696.530334 600.810120,695.384949 
	C595.679199,693.995361 595.175720,689.579895 595.550476,685.325867 
	C595.988647,680.350647 594.388123,678.156677 589.263550,679.158081 
	C588.622192,679.283447 587.934937,679.166321 587.269165,679.176758 
	C583.944275,679.228760 579.994019,678.185547 577.457275,679.627380 
	C574.476562,681.321655 576.587402,685.694031 576.037476,688.852966 
	C575.240906,693.428650 572.338013,695.911804 567.312012,696.002747 
	C562.032959,696.098328 558.253784,693.637695 558.226624,688.817932 
	C558.121460,670.163696 558.454712,651.472656 565.920898,633.896545 
	C569.768372,624.839294 576.538025,619.781494 586.834900,619.831360 
	C597.094727,619.881165 603.762207,625.012451 607.807434,633.942688 
	C612.837341,645.046753 613.880249,657.027527 614.864807,668.967285 
	C615.302124,674.270752 615.340393,679.609131 615.484436,684.933716 
	C615.561401,687.775574 615.434204,690.611572 613.343201,693.323853 
z"/>
<path fill="#553827" opacity="1.000000" stroke="none" 
	d="
M867.963135,635.483276 
	C859.428711,635.384521 859.428711,635.384521 859.428528,643.671021 
	C859.428345,651.970703 859.428040,651.947510 867.925537,651.834961 
	C870.587341,651.799683 873.286011,651.675659 875.905823,652.039307 
	C879.627502,652.555908 881.906128,654.748840 882.000000,658.729187 
	C882.098450,662.903381 879.936951,665.501953 875.937378,665.934204 
	C871.983826,666.361450 867.942810,666.299438 863.962952,666.065247 
	C860.686584,665.872498 859.306274,666.556946 859.329224,670.300964 
	C859.397705,681.483154 859.219849,681.455261 870.524170,681.374878 
	C874.177124,681.348938 877.837036,680.941406 881.485168,681.714294 
	C885.276489,682.517517 887.349121,684.692505 887.394104,688.602722 
	C887.442322,692.798462 885.088745,695.213074 881.167786,695.742615 
	C877.888000,696.185547 874.519043,696.018616 871.189270,696.031677 
	C863.689453,696.061157 856.188354,696.115417 848.689941,696.007141 
	C842.084229,695.911743 839.193665,693.151184 839.153992,686.519104 
	C839.042297,667.854309 839.046448,649.188110 839.150024,630.523193 
	C839.187256,623.809021 842.006226,621.024048 848.577087,620.960205 
	C858.409058,620.864685 868.244568,620.851379 878.075195,621.010254 
	C883.436829,621.096863 886.102722,623.491577 886.268433,627.780640 
	C886.427429,631.896179 884.501038,634.338501 880.422974,635.190186 
	C876.441223,636.021790 872.445251,635.396423 867.963135,635.483276 
z"/>
<path fill="#573B2B" opacity="1.000000" stroke="none" 
	d="
M662.052185,690.720825 
	C658.855225,695.744995 654.343811,697.307373 648.505676,695.715759 
	C643.327087,694.303894 642.204712,690.288330 642.212952,685.642029 
	C642.239929,670.482666 642.173157,655.321106 642.436768,640.165527 
	C642.502319,636.397217 641.450623,635.093018 637.706604,635.488831 
	C635.254272,635.748108 632.713440,635.546997 630.250244,635.243530 
	C626.010559,634.721069 623.666992,632.335632 623.783325,627.879150 
	C623.903625,623.269104 626.835266,621.487549 630.874023,621.054016 
	C633.182922,620.806152 635.533630,620.918274 637.865479,620.917603 
	C649.528137,620.914185 661.190918,620.912781 672.853516,620.941833 
	C676.967224,620.952087 680.541382,621.963806 681.676636,626.589600 
	C682.609741,630.391602 680.439514,633.890442 676.546265,635.022888 
	C673.279541,635.973083 669.913574,635.729919 666.608948,635.498413 
	C663.546631,635.283936 662.630371,636.299377 662.663330,639.400513 
	C662.819092,654.060608 662.757996,668.723328 662.705811,683.384888 
	C662.697632,685.698975 662.339417,688.011841 662.052185,690.720825 
z"/>
<path fill="#080808" opacity="1.000000" stroke="none" 
	d="
M611.227661,756.310181 
	C611.170715,751.722107 611.170715,747.570068 611.170715,742.448242 
	C608.655640,746.189331 608.160278,749.750244 606.832275,752.952820 
	C606.270203,754.308411 605.713318,755.929260 603.849548,755.865479 
	C602.052124,755.804016 601.464111,754.321777 600.977600,752.864319 
	C599.908936,749.662537 598.839111,746.461182 597.101440,743.447205 
	C597.101440,747.035767 597.043152,750.625549 597.122620,754.212341 
	C597.173035,756.485535 597.278381,758.832642 594.221497,758.950012 
	C591.240601,759.064453 590.932373,756.916504 590.961426,754.519714 
	C591.032043,748.701172 591.024658,742.880798 590.964355,737.062012 
	C590.940430,734.754944 591.008484,732.462585 593.945312,732.270081 
	C596.659485,732.092346 599.802917,731.323242 601.329407,734.763306 
	C602.399658,737.175232 603.326172,739.650940 604.358398,742.200684 
	C606.491089,740.934753 606.394165,738.686279 606.792969,736.945740 
	C607.832764,732.408081 610.864746,731.848694 614.695007,732.149536 
	C618.932617,732.482483 618.462158,735.554016 618.467346,738.375732 
	C618.477173,743.696350 618.481750,749.016968 618.461365,754.337524 
	C618.454285,756.183838 618.512878,758.223694 616.251404,758.836975 
	C614.185181,759.397217 612.251953,759.072510 611.227661,756.310181 
z"/>
<path fill="#080808" opacity="1.000000" stroke="none" 
	d="
M750.330566,747.752197 
	C749.744202,746.029785 749.298889,744.680664 748.853638,743.331543 
	C748.622742,743.377197 748.391907,743.422852 748.161011,743.468567 
	C748.161011,747.319641 748.124390,751.171265 748.174866,755.021729 
	C748.205017,757.321533 747.549500,759.075806 744.909546,758.960938 
	C742.646790,758.862488 741.935181,757.353882 741.960571,755.199097 
	C742.031006,749.211304 742.009827,743.221924 741.971252,737.233521 
	C741.956787,734.994751 741.819275,732.567017 744.780945,732.298218 
	C747.664734,732.036377 750.952759,731.311584 752.494324,735.055847 
	C753.469421,737.424377 754.417786,739.803833 755.431091,742.309265 
	C757.340576,740.786255 757.415894,738.768311 757.758667,737.101135 
	C758.760803,732.227112 762.097229,731.728760 766.038330,732.191956 
	C770.255676,732.687683 769.417480,736.012573 769.452759,738.727295 
	C769.515442,743.550598 769.517883,748.376099 769.451111,753.199341 
	C769.415405,755.773926 770.052856,758.937744 765.915405,758.990784 
	C761.907959,759.042175 762.133362,756.136047 762.154175,753.393616 
	C762.179260,750.071655 762.160034,746.749390 762.160034,742.639648 
	C759.692200,745.832275 759.340454,749.112122 758.136414,752.004333 
	C757.441284,753.674194 757.138733,755.863892 754.849182,755.828674 
	C752.562378,755.793518 752.239746,753.643127 751.700073,751.903809 
	C751.307678,750.639038 750.882324,749.384521 750.330566,747.752197 
z"/>
<path fill="#070707" opacity="1.000000" stroke="none" 
	d="
M530.311523,732.913025 
	C532.379272,740.808167 531.153809,748.606384 531.353577,756.359009 
	C531.391418,757.826233 530.352356,758.750732 528.821472,758.962830 
	C526.617432,759.268188 524.864929,758.599243 523.844421,756.544006 
	C521.750488,752.326660 519.702393,748.086670 517.251770,743.070679 
	C515.736633,747.385559 517.003296,750.759399 516.945679,754.092407 
	C516.906921,756.336975 517.187561,758.755127 514.156006,758.937378 
	C511.106812,759.120850 510.950287,756.815308 510.970093,754.482605 
	C511.019440,748.668518 511.007599,742.853516 510.974823,737.039185 
	C510.963226,734.983032 510.844757,732.848328 513.477356,732.339355 
	C515.843018,731.882019 518.221802,732.012939 519.709290,734.297546 
	C520.606140,735.675110 521.091125,737.317444 521.958008,738.719055 
	C522.664001,739.860474 522.566345,742.150146 524.596436,741.703735 
	C526.683167,741.244934 525.626587,739.242615 525.676453,737.894348 
	C525.747070,735.985779 524.799072,733.858826 527.144958,732.580200 
	C528.132019,732.042297 529.047791,732.182129 530.311523,732.913025 
z"/>
<path fill="#070707" opacity="1.000000" stroke="none" 
	d="
M336.797913,754.305054 
	C334.976776,750.611755 333.308105,747.265808 331.186371,743.011292 
	C329.779449,747.489990 330.966156,751.000732 330.965942,754.458496 
	C330.965820,756.591980 330.950409,758.731934 328.283752,758.940308 
	C325.283508,759.174744 324.939911,757.013855 324.965942,754.609192 
	C325.028839,748.793640 324.996490,742.976868 324.980713,737.160583 
	C324.975250,735.146179 324.715088,732.942322 327.363922,732.375366 
	C329.926117,731.826965 332.432159,732.040894 333.925812,734.607727 
	C334.922821,736.321045 335.589996,738.223633 336.533875,739.971802 
	C336.955200,740.752136 337.143463,742.046326 338.500031,741.795410 
	C340.158569,741.488586 339.723114,740.077087 339.768097,739.001160 
	C339.802490,738.178528 339.647217,737.346985 339.565247,736.520508 
	C339.343353,734.283142 339.844208,732.269470 342.459564,732.274902 
	C345.026550,732.280212 345.501312,734.295898 345.481110,736.516968 
	C345.431213,742.000488 345.537415,747.486023 345.432617,752.967957 
	C345.388458,755.277710 346.418671,758.302856 342.720062,758.953247 
	C339.361633,759.543823 337.978699,757.289978 336.797913,754.305054 
z"/>
<path fill="#070707" opacity="1.000000" stroke="none" 
	d="
M277.577271,736.684021 
	C277.406494,733.956604 278.075592,732.096802 280.721466,732.309326 
	C283.369354,732.522095 283.483215,734.682373 283.474121,736.783691 
	C283.449036,742.593811 283.470734,748.404175 283.463562,754.214417 
	C283.461060,756.216675 283.667603,758.398193 280.974243,758.924316 
	C278.301117,759.446655 276.580719,758.241943 275.454498,755.806030 
	C273.606110,751.807983 271.620758,747.873352 269.229858,742.959839 
	C267.755005,747.463989 268.979218,750.967102 268.965607,754.408630 
	C268.956360,756.753235 268.886780,758.994995 265.847412,758.946350 
	C263.148285,758.903137 262.949463,756.830688 262.968719,754.672302 
	C263.020538,748.862488 263.013885,743.051758 262.972290,737.241760 
	C262.956299,735.006775 262.822784,732.683105 265.756714,732.270386 
	C268.322174,731.909546 270.779602,732.212402 272.115479,734.960510 
	C272.622406,736.003296 273.103455,737.061829 273.671295,738.071045 
	C274.433929,739.426453 274.540375,741.990356 276.376221,741.678101 
	C278.915466,741.246277 277.440094,738.754333 277.577271,736.684021 
z"/>
<path fill="#070707" opacity="1.000000" stroke="none" 
	d="
M396.414001,755.679932 
	C394.385529,751.529480 392.536346,747.715332 390.214142,742.925537 
	C388.776581,747.483643 389.962738,750.993103 389.966003,754.447144 
	C389.968231,756.808960 389.843201,759.034058 386.802734,758.946045 
	C384.096802,758.867737 383.951782,756.762329 383.969696,754.620972 
	C384.018311,748.805176 383.995483,742.988831 383.981232,737.172668 
	C383.976318,735.162048 383.703125,732.953247 386.352295,732.378967 
	C388.914062,731.823792 391.421570,732.036804 392.919952,734.596863 
	C393.921021,736.307251 394.583557,738.212769 395.527039,739.961182 
	C395.948730,740.742615 396.139557,742.034546 397.487549,741.797058 
	C399.148407,741.504517 398.738495,740.091309 398.766632,739.014282 
	C398.792511,738.023987 398.623047,737.028809 398.543915,736.035461 
	C398.373627,733.896973 399.184357,732.265320 401.446686,732.268127 
	C403.663605,732.270935 404.481995,733.869141 404.469818,736.005249 
	C404.435760,741.987366 404.474976,747.969727 404.459808,753.952026 
	C404.454834,755.918945 404.831848,758.217957 402.222015,758.869446 
	C399.659119,759.509155 397.651581,758.581299 396.414001,755.679932 
z"/>
<path fill="#080808" opacity="1.000000" stroke="none" 
	d="
M679.925049,759.006226 
	C677.043884,758.984131 675.935608,757.801636 675.962402,755.297424 
	C676.031677,748.823792 676.028442,742.348511 675.963867,735.874756 
	C675.938232,733.304626 677.280334,732.236938 679.609253,732.195618 
	C683.418823,732.128052 687.246094,731.907410 691.001404,732.845276 
	C697.161011,734.383728 699.255005,741.061584 694.709656,745.485779 
	C693.081055,747.071106 692.472961,747.625854 694.333740,749.444275 
	C695.545166,750.628113 696.085144,752.593933 696.673218,754.296753 
	C697.398560,756.397034 697.211731,758.412903 694.553223,758.916870 
	C692.319885,759.340271 690.150146,759.085144 689.348511,756.385254 
	C689.067017,755.437073 689.012756,754.422241 688.742676,753.469604 
	C688.110718,751.240112 686.830200,749.120850 684.374451,749.503235 
	C681.799683,749.904175 683.209534,752.400696 683.153015,753.964722 
	C683.072205,756.200867 683.210999,758.377930 679.925049,759.006226 
z"/>
<path fill="#070707" opacity="1.000000" stroke="none" 
	d="
M319.223511,737.976562 
	C320.747528,741.843262 320.695740,745.495300 320.266266,749.129272 
	C319.445831,756.071594 315.784149,759.356812 309.170502,759.291687 
	C302.658844,759.227539 298.857941,755.761475 298.105621,748.981628 
	C297.869110,746.850220 297.880615,744.656311 298.077637,742.518555 
	C298.590363,736.954590 301.499146,733.252563 305.952667,732.198914 
	C311.637726,730.854004 315.743500,732.548462 319.223511,737.976562 
z"/>
<path fill="#070707" opacity="1.000000" stroke="none" 
	d="
M650.052856,738.387085 
	C653.477112,732.646362 657.784119,730.784851 663.564758,732.203064 
	C668.200806,733.340332 671.018860,737.064697 671.351929,743.062317 
	C671.506714,745.851196 671.421448,748.745972 670.840515,751.463440 
	C669.748047,756.573425 666.138672,759.177246 660.780396,759.294495 
	C654.847961,759.424438 651.342957,757.169067 649.805054,751.998840 
	C648.497620,747.603333 648.548584,743.166931 650.052856,738.387085 
z"/>
<path fill="#070707" opacity="1.000000" stroke="none" 
	d="
M257.091858,746.723389 
	C257.245392,749.812988 257.379120,752.471497 257.454681,755.131714 
	C257.512512,757.168030 256.934570,758.798035 254.539078,758.985779 
	C252.191544,759.169800 250.433289,758.337402 250.593735,755.733459 
	C250.767975,752.905396 249.141968,753.011414 247.156815,752.970032 
	C244.922607,752.923462 243.212509,753.014954 243.400406,756.005310 
	C243.527191,758.023254 242.232071,759.066284 240.232437,758.973389 
	C238.246994,758.881226 237.180130,757.686157 237.187469,755.739624 
	C237.211365,749.402466 237.387741,743.061951 239.895645,737.099365 
	C241.214508,733.963623 243.431992,731.980652 247.123657,731.958435 
	C250.939789,731.935425 253.427246,733.748474 254.903076,737.103699 
	C256.187286,740.023254 256.796295,743.121460 257.091858,746.723389 
z"/>
<path fill="#070707" opacity="1.000000" stroke="none" 
	d="
M491.290039,732.932007 
	C498.125153,731.070496 501.567169,732.721802 503.562256,738.774109 
	C505.347321,744.189209 505.478607,749.843018 505.453735,755.488403 
	C505.444305,757.628357 504.522339,758.956299 502.208984,759.008362 
	C500.068878,759.056458 498.496277,758.232666 498.606995,755.926331 
	C498.727783,753.410339 497.623566,752.941528 495.375671,752.945190 
	C492.929749,752.949158 491.158905,753.079163 491.371063,756.254395 
	C491.488770,758.016296 490.239166,758.925903 488.501953,758.987183 
	C486.780304,759.048035 485.263794,758.143921 485.318665,756.530334 
	C485.596344,748.365051 484.414337,739.790955 491.290039,732.932007 
z"/>
<path fill="#040404" opacity="1.000000" stroke="none" 
	d="
M724.446289,759.203613 
	C717.882751,758.019043 715.929199,755.907654 715.824219,750.016968 
	C715.741333,745.367371 715.834412,740.714783 715.801208,736.063904 
	C715.784180,733.676880 716.790894,732.176636 719.267822,732.220825 
	C721.592224,732.262207 722.977173,733.546631 722.992676,735.976746 
	C723.022400,740.627686 722.997498,745.278931 723.014038,749.929993 
	C723.021606,752.060059 723.341980,754.015137 726.092712,754.118225 
	C728.895996,754.223389 729.375244,752.066895 729.459167,750.101562 
	C729.650330,745.624390 729.598267,741.133057 729.520996,736.649658 
	C729.477844,734.146057 730.189148,732.214966 732.976135,732.289734 
	C735.514099,732.357727 736.081055,734.246887 736.030823,736.517517 
	C735.946411,740.336243 736.012024,744.158203 736.007507,747.978760 
	C735.996948,756.828003 733.737549,759.098328 724.446289,759.203613 
z"/>
<path fill="#070707" opacity="1.000000" stroke="none" 
	d="
M625.745361,732.581543 
	C629.962036,732.047607 633.757812,732.012268 637.570374,732.574036 
	C641.409119,733.139648 644.249451,734.823792 644.853394,738.886902 
	C645.491516,743.180298 644.205811,746.807007 640.253296,749.071899 
	C639.117126,749.723083 637.823303,750.410461 636.567261,750.482788 
	C632.748901,750.702881 630.012512,751.495972 630.927124,756.366638 
	C631.244507,758.056763 629.587769,758.860474 627.938354,758.997986 
	C626.350281,759.130493 624.282288,758.753723 624.304077,757.200745 
	C624.418213,749.056519 622.435242,740.800415 625.745361,732.581543 
z"/>
<path fill="#070707" opacity="1.000000" stroke="none" 
	d="
M451.678345,732.169922 
	C459.832672,733.576111 462.130737,735.599548 462.008698,740.883118 
	C461.877106,746.581665 458.174072,750.244934 451.095062,750.854736 
	C448.351532,751.091064 447.756622,751.897644 448.072327,754.381958 
	C448.404694,756.997681 447.643188,759.048462 444.422943,759.010986 
	C441.095367,758.972229 440.927917,756.754456 440.963593,754.212952 
	C441.038361,748.891113 441.319824,743.540344 440.890625,738.252319 
	C440.477478,733.162231 442.644226,731.640991 447.247162,732.140991 
	C448.562378,732.283875 449.906250,732.163635 451.678345,732.169922 
z"/>
<path fill="#070707" opacity="1.000000" stroke="none" 
	d="
M584.555542,736.887451 
	C582.561829,737.209839 580.915100,737.472839 579.275818,737.432800 
	C577.249451,737.383179 575.882446,737.456665 575.914978,740.218933 
	C575.944092,742.679443 576.656860,743.368225 579.033203,743.223816 
	C581.057190,743.100830 583.917664,742.628845 583.953125,745.795227 
	C583.989441,749.026306 581.101013,748.513855 579.080200,748.404968 
	C576.782776,748.281189 575.888367,748.803162 575.924255,751.338196 
	C575.960205,753.886414 577.341675,753.620239 579.057922,753.865784 
	C581.511475,754.216919 585.838562,752.145813 585.760742,756.479980 
	C585.684814,760.706360 581.391663,758.894165 578.944702,758.932556 
	C567.618896,759.110535 569.051086,759.909241 568.989807,749.281738 
	C568.967773,745.464355 568.985229,741.646667 568.987000,737.829163 
	C568.987427,736.999329 568.896667,736.154053 569.021423,735.342468 
	C569.499329,732.233093 575.759644,730.780273 582.616882,732.235657 
	C585.095520,732.761719 586.750244,733.870850 584.555542,736.887451 
z"/>
<path fill="#070707" opacity="1.000000" stroke="none" 
	d="
M413.396698,759.008179 
	C410.681854,758.719788 409.942078,757.358154 409.964081,755.197693 
	C410.028595,748.869568 409.991333,742.540405 409.984375,736.211609 
	C409.982880,734.851257 409.916962,733.185669 411.429291,732.807983 
	C415.985657,731.670288 420.625580,731.780762 425.206360,732.766602 
	C426.207031,732.981934 426.827271,733.974976 426.656464,735.090820 
	C426.499207,736.117981 425.943695,737.049194 424.823242,737.182434 
	C423.180023,737.377808 421.504517,737.534119 419.860291,737.430054 
	C417.783234,737.298584 416.958710,737.877625 416.931183,740.152771 
	C416.902344,742.534729 417.518188,743.614441 419.984802,743.166382 
	C420.145966,743.137085 420.317719,743.154480 420.483643,743.164429 
	C422.434814,743.280884 424.921143,742.909058 424.978851,745.772461 
	C425.037842,748.699036 422.537598,748.451233 420.577728,748.437561 
	C418.494690,748.423096 416.799408,748.187622 416.909821,751.358337 
	C417.018066,754.466614 418.926147,753.704163 420.602600,753.790466 
	C421.433197,753.833130 422.268433,753.779785 423.100220,753.808411 
	C424.987518,753.873291 427.067688,753.933533 426.947174,756.545654 
	C426.827820,759.133118 424.690674,758.991394 422.850983,759.006714 
	C419.853363,759.031616 416.855347,759.013245 413.396698,759.008179 
z"/>
<path fill="#080808" opacity="1.000000" stroke="none" 
	d="
M551.372864,732.161987 
	C553.730774,732.332031 555.647217,732.665588 555.399109,735.226562 
	C555.177246,737.516174 553.260193,737.573853 551.604431,737.432678 
	C548.807434,737.194336 548.784546,738.855286 548.817261,740.874329 
	C548.890137,745.372253 548.774963,749.873413 548.863892,754.370728 
	C548.917175,757.062195 548.307129,759.012695 545.120667,759.010742 
	C541.749695,759.008728 541.529358,756.634094 541.547913,754.186462 
	C541.579529,750.024475 541.622925,745.859009 541.825684,741.703064 
	C541.954407,739.066223 541.774231,737.055481 538.273071,737.415649 
	C536.693848,737.578064 535.134155,736.925659 535.073975,735.037964 
	C535.005249,732.885010 536.676758,732.247742 538.450134,732.209045 
	C542.614014,732.118103 546.780945,732.167664 551.372864,732.161987 
z"/>
<path fill="#040404" opacity="1.000000" stroke="none" 
	d="
M472.268311,732.583435 
	C474.567291,733.954163 474.136292,735.929749 474.145050,737.701477 
	C474.162384,741.195312 474.205780,744.699646 473.967010,748.181091 
	C473.734039,751.578186 474.063477,753.979675 478.500397,753.260864 
	C480.332642,752.964050 481.818695,754.191956 481.741425,756.195251 
	C481.664825,758.180725 480.186279,758.978394 478.286041,758.996277 
	C478.119568,758.997864 477.953186,759.005920 477.786743,759.006042 
	C464.941284,759.014099 467.104126,759.885437 466.998016,749.057678 
	C466.958893,745.062317 467.112152,741.061523 466.956177,737.071899 
	C466.814453,733.446594 468.066833,731.626160 472.268311,732.583435 
z"/>
<path fill="#040404" opacity="1.000000" stroke="none" 
	d="
M352.793030,733.229248 
	C358.035919,731.768555 359.197723,732.606995 359.168182,737.411682 
	C359.142639,741.568787 359.194611,745.732971 358.959839,749.879761 
	C358.816711,752.407532 359.480255,753.516724 362.191315,753.211914 
	C364.495667,752.952759 366.914337,753.420288 366.704620,756.381470 
	C366.522858,758.948669 364.200287,759.025085 362.100983,759.018982 
	C350.401306,758.984863 351.968231,759.788940 352.033997,749.385132 
	C352.067413,744.093201 351.415588,738.769531 352.793030,733.229248 
z"/>
<path fill="#040404" opacity="1.000000" stroke="none" 
	d="
M370.795227,733.225159 
	C375.133881,731.194519 377.155060,732.570129 377.176361,736.899292 
	C377.205750,742.869751 377.174652,748.840454 377.169830,754.811096 
	C377.167847,757.282654 376.353943,759.026062 373.492218,759.009277 
	C370.633972,758.992493 369.849182,757.355225 369.977081,754.793884 
	C370.331268,747.701050 369.361664,740.576050 370.795227,733.225159 
z"/>
<path fill="#040404" opacity="1.000000" stroke="none" 
	d="
M710.194458,740.369629 
	C710.191650,745.297546 710.189819,749.770325 710.185608,754.243164 
	C710.183289,756.741638 709.843018,758.972473 706.571228,759.008179 
	C703.320679,759.043701 702.920227,757.012817 702.963440,754.383606 
	C703.056030,748.752686 703.041870,743.118530 702.969666,737.487061 
	C702.935791,734.848145 702.884155,732.242981 706.478027,732.224060 
	C709.994568,732.205505 710.228455,734.778137 710.195007,737.429626 
	C710.184570,738.257812 710.194153,739.086243 710.194458,740.369629 
z"/>
<path fill="#513525" opacity="1.000000" stroke="none" 
	d="
M256.990540,459.631683 
	C252.554779,460.967468 248.808456,458.842468 245.161560,456.496490 
	C240.565033,453.539551 235.929428,450.714172 230.738586,448.839569 
	C226.531082,447.320099 222.867355,444.877350 219.314804,442.067139 
	C216.480316,439.824860 214.038651,436.891113 209.681976,436.508148 
	C206.321503,436.212677 204.853836,432.454742 203.055298,429.360809 
	C218.014038,437.707977 233.009933,446.432678 248.057938,455.066498 
	C250.863480,456.676117 253.878326,457.920929 256.990540,459.631683 
z"/>
<path fill="#513525" opacity="1.000000" stroke="none" 
	d="
M309.103088,528.544800 
	C313.713684,526.666992 318.690552,528.268982 323.565033,527.426758 
	C326.120575,526.985229 328.786865,527.184570 331.836945,527.158813 
	C327.354492,533.876099 320.598450,530.625366 314.465393,530.412659 
	C312.727875,530.352417 311.021149,529.403320 309.103088,528.544800 
z"/>
<path fill="#513525" opacity="1.000000" stroke="none" 
	d="
M198.999329,426.666901 
	C198.563309,426.758545 197.962662,426.580566 197.210373,426.117584 
	C197.650726,426.020844 198.242706,426.209045 198.999329,426.666901 
z"/>
<path fill="#513525" opacity="1.000000" stroke="none" 
	d="
M200.950806,427.781067 
	C200.775391,427.929962 200.516525,427.806061 200.166473,427.426819 
	C200.379211,427.179810 200.643219,427.292084 200.950806,427.781067 
z"/>
<path fill="#513525" opacity="1.000000" stroke="none" 
	d="
M332.446869,527.161133 
	C332.351440,526.952881 332.497498,526.624634 332.899353,526.185913 
	C332.999542,526.397339 332.843933,526.719299 332.446869,527.161133 
z"/>
<path fill="#513525" opacity="1.000000" stroke="none" 
	d="
M333.340942,526.052185 
	C333.248688,525.847473 333.414276,525.550903 333.811096,525.135864 
	C333.894470,525.331604 333.746674,525.645935 333.340942,526.052185 
z"/>
<path fill="#FFFFFF" opacity="1.000000" stroke="none" 
	d="
M399.027710,380.956177 
	C398.623077,380.826843 398.388489,380.519592 398.153870,380.212402 
	C398.434052,380.159668 398.714233,380.106934 399.241455,380.217651 
	C399.488495,380.381042 399.197754,380.778229 399.027710,380.956177 
z"/>
<path fill="#FAFDF6" opacity="1.000000" stroke="none" 
	d="
M785.403931,641.218445 
	C784.433777,634.422363 788.960632,635.909851 792.295044,636.012817 
	C801.443237,636.295105 805.188293,641.145447 802.942871,649.616882 
	C801.576660,654.771301 790.587952,659.478943 786.251465,656.776855 
	C784.988770,655.990051 785.401306,654.733398 785.387939,653.648804 
	C785.338806,649.663147 785.372864,645.676575 785.403931,641.218445 
z"/>
<path fill="#FAFDF6" opacity="1.000000" stroke="none" 
	d="
M230.309265,653.655884 
	C230.332367,648.538330 230.477219,643.881836 230.335770,639.234009 
	C230.254669,636.568604 231.293549,635.647217 233.840332,635.899292 
	C235.488892,636.062561 237.167404,635.907654 238.820724,636.041138 
	C244.928558,636.534119 247.809479,639.024780 248.357803,644.189331 
	C249.039261,650.607788 246.425629,654.598206 240.614471,656.273438 
	C238.164230,656.979858 235.688828,656.864990 233.206329,657.001770 
	C231.060318,657.119995 230.107330,656.256409 230.309265,653.655884 
z"/>
<path fill="#FDFEFC" opacity="1.000000" stroke="none" 
	d="
M323.101135,663.900146 
	C323.064056,667.555664 322.825623,670.695984 322.070343,673.798096 
	C320.599640,679.838745 318.097351,682.140564 312.686676,682.272217 
	C306.849243,682.414124 303.836029,680.316284 302.532684,674.152283 
	C300.338989,663.777832 300.373108,653.277771 302.486053,642.896301 
	C303.738708,636.741638 306.842560,634.516113 312.560638,634.629517 
	C317.995667,634.737305 320.602417,637.047913 322.037323,643.010925 
	C323.658386,649.747253 323.019653,656.600342 323.101135,663.900146 
z"/>
<path fill="#FDFEFC" opacity="1.000000" stroke="none" 
	d="
M592.003296,643.235107 
	C593.929932,650.059265 594.092773,656.725952 594.862122,663.309937 
	C595.109314,665.424988 594.510437,666.325439 592.232849,666.254089 
	C587.919128,666.118835 583.597412,666.163574 579.280701,666.235779 
	C577.424072,666.266785 576.606995,665.696350 576.687378,663.682129 
	C576.952271,657.045898 577.088379,650.390198 578.523926,643.883179 
	C579.334045,640.210938 579.891479,635.670593 584.666077,635.285034 
	C589.497986,634.894836 590.571899,639.266296 592.003296,643.235107 
z"/>
<path fill="#FFFFFF" opacity="1.000000" stroke="none" 
	d="
M525.550659,743.104187 
	C525.963196,744.174194 526.142395,745.014221 525.375671,745.634705 
	C525.063477,744.721436 523.549011,743.884766 525.550659,743.104187 
z"/>
<path fill="#FFFFFF" opacity="1.000000" stroke="none" 
	d="
M339.550568,743.104126 
	C339.963165,744.174133 340.142395,745.014160 339.375702,745.634705 
	C339.063599,744.721375 337.548920,743.884766 339.550568,743.104126 
z"/>
<path fill="#FFFFFF" opacity="1.000000" stroke="none" 
	d="
M277.550568,743.104126 
	C277.963165,744.174133 278.142395,745.014160 277.375702,745.634705 
	C277.063599,744.721375 275.548920,743.884766 277.550568,743.104126 
z"/>
<path fill="#FFFFFF" opacity="1.000000" stroke="none" 
	d="
M398.550568,743.104126 
	C398.963165,744.174133 399.142395,745.014160 398.375702,745.634705 
	C398.063599,744.721375 396.548920,743.884766 398.550568,743.104126 
z"/>
<path fill="#F0F0F0" opacity="1.000000" stroke="none" 
	d="
M684.688599,737.566528 
	C687.573242,737.769287 689.828064,738.338318 689.481323,741.535156 
	C689.203430,744.097107 687.452087,745.119934 684.973328,745.053162 
	C682.375244,744.983032 682.058167,741.410828 684.688599,737.566528 
z"/>
<path fill="#F0F0F0" opacity="1.000000" stroke="none" 
	d="
M308.296906,753.985046 
	C305.043945,750.731079 304.040100,741.796936 306.355896,738.740967 
	C308.119995,736.413086 310.234344,736.377197 312.084595,738.699280 
	C313.673126,740.692932 313.528839,750.470764 312.123718,752.668640 
	C311.263855,754.013550 310.065948,754.148560 308.296906,753.985046 
z"/>
<path fill="#F0F0F0" opacity="1.000000" stroke="none" 
	d="
M663.683899,739.876221 
	C664.340820,743.720459 664.362488,747.179749 663.873779,750.616638 
	C663.602173,752.526245 662.708679,754.064087 660.428406,754.112366 
	C658.243103,754.158691 657.134705,752.969604 656.691650,750.937439 
	C655.979675,747.671204 655.992126,744.396240 656.526489,741.117249 
	C656.799500,739.441895 657.325195,737.840393 659.169556,737.288879 
	C661.250305,736.666687 662.659607,737.596375 663.683899,739.876221 
z"/>
<path fill="#F0F0F0" opacity="1.000000" stroke="none" 
	d="
M244.433105,748.247681 
	C243.575867,745.199158 243.934540,742.457336 244.579407,739.742432 
	C244.852875,738.591248 245.391144,737.450012 246.748810,737.480774 
	C248.027908,737.509766 248.797699,738.477478 249.029861,739.698547 
	C249.456131,741.940308 250.189499,744.222290 250.068542,746.447998 
	C249.851105,750.449463 246.612381,747.923218 244.433105,748.247681 
z"/>
<path fill="#F0F0F0" opacity="1.000000" stroke="none" 
	d="
M493.537903,737.966553 
	C496.847504,738.576172 499.001709,743.297607 498.181732,746.984680 
	C497.606140,749.572815 495.612762,748.342529 494.196808,748.562439 
	C492.136749,748.882385 491.640015,747.625488 491.820221,745.875793 
	C492.087860,743.277039 491.855560,740.585999 493.537903,737.966553 
z"/>
<path fill="#F0F0F0" opacity="1.000000" stroke="none" 
	d="
M634.932251,745.095825 
	C633.265686,745.274353 631.259277,746.720276 631.123657,744.196777 
	C631.008057,742.045044 629.755127,739.214355 632.004456,737.789917 
	C633.210815,737.025879 635.795410,737.250732 636.867188,739.071167 
	C638.229614,741.385315 637.734802,743.527649 634.932251,745.095825 
z"/>
<path fill="#F0F0F0" opacity="1.000000" stroke="none" 
	d="
M454.202454,739.610229 
	C454.339203,740.767578 454.477264,741.605774 454.322723,742.385986 
	C453.782043,745.115601 451.309113,746.095276 449.424591,745.405518 
	C446.389069,744.294617 448.048767,741.101257 448.170807,738.968384 
	C448.330505,736.175964 450.729248,738.108704 452.118103,737.944153 
	C452.978699,737.842224 453.645538,738.483032 454.202454,739.610229 
z"/>
</svg>